<mxfile host="app.diagrams.net" modified="2024-05-06T08:02:03.456Z" agent="Mozilla/5.0 (Windows NT 10.0; Win64; x64) AppleWebKit/537.36 (KHTML, like Gecko) Chrome/124.0.0.0 Safari/537.36" etag="V3oValOQ-6mB_C3u68QE" version="24.3.1" type="device">
  <diagram id="RAGtzLFKwbdUckXWn4iN" name="Halaman-1">
    <mxGraphModel dx="503" dy="248" grid="1" gridSize="10" guides="1" tooltips="1" connect="1" arrows="1" fold="1" page="1" pageScale="1" pageWidth="827" pageHeight="1169" math="0" shadow="0">
      <root>
        <mxCell id="0" />
        <mxCell id="1" parent="0" />
        <mxCell id="K_lp6_0wbMEvAcMGEVY7-65" value="&lt;div&gt;&lt;/div&gt;" style="shape=umlLifeline;perimeter=lifelinePerimeter;whiteSpace=wrap;html=1;container=1;dropTarget=0;collapsible=0;recursiveResize=0;outlineConnect=0;portConstraint=eastwest;newEdgeStyle={&quot;curved&quot;:0,&quot;rounded&quot;:0};participant=umlActor;size=40;" parent="1" vertex="1">
          <mxGeometry x="220" y="77" width="20" height="340" as="geometry" />
        </mxCell>
        <mxCell id="OxrHae_57oYZ9077EPSq-14" value="" style="html=1;points=[[0,0,0,0,5],[0,1,0,0,-5],[1,0,0,0,5],[1,1,0,0,-5]];perimeter=orthogonalPerimeter;outlineConnect=0;targetShapes=umlLifeline;portConstraint=eastwest;newEdgeStyle={&quot;curved&quot;:0,&quot;rounded&quot;:0};" parent="K_lp6_0wbMEvAcMGEVY7-65" vertex="1">
          <mxGeometry x="5" y="52" width="10" height="98" as="geometry" />
        </mxCell>
        <mxCell id="K_lp6_0wbMEvAcMGEVY7-67" value="&lt;div&gt;Pengguna&lt;/div&gt;" style="text;html=1;align=center;verticalAlign=middle;resizable=0;points=[];autosize=1;strokeColor=none;fillColor=none;" parent="1" vertex="1">
          <mxGeometry x="190" y="49" width="80" height="30" as="geometry" />
        </mxCell>
        <mxCell id="K_lp6_0wbMEvAcMGEVY7-75" value="Sequence Diagram Action â€“ Laptop" style="shape=umlFrame;whiteSpace=wrap;html=1;pointerEvents=0;width=250;height=20;align=left;" parent="1" vertex="1">
          <mxGeometry x="190" y="30" width="380" height="250" as="geometry" />
        </mxCell>
        <mxCell id="OxrHae_57oYZ9077EPSq-15" value="" style="shape=umlLifeline;perimeter=lifelinePerimeter;whiteSpace=wrap;html=1;container=1;dropTarget=0;collapsible=0;recursiveResize=0;outlineConnect=0;portConstraint=eastwest;newEdgeStyle={&quot;curved&quot;:0,&quot;rounded&quot;:0};participant=umlBoundary;" parent="1" vertex="1">
          <mxGeometry x="410" y="77" width="50" height="339" as="geometry" />
        </mxCell>
        <mxCell id="OxrHae_57oYZ9077EPSq-16" value="" style="html=1;points=[[0,0,0,0,5],[0,1,0,0,-5],[1,0,0,0,5],[1,1,0,0,-5]];perimeter=orthogonalPerimeter;outlineConnect=0;targetShapes=umlLifeline;portConstraint=eastwest;newEdgeStyle={&quot;curved&quot;:0,&quot;rounded&quot;:0};" parent="OxrHae_57oYZ9077EPSq-15" vertex="1">
          <mxGeometry x="21" y="51" width="10" height="139" as="geometry" />
        </mxCell>
        <mxCell id="fkkqWJSYbEHI7g0LPWqD-6" style="edgeStyle=orthogonalEdgeStyle;rounded=0;orthogonalLoop=1;jettySize=auto;html=1;curved=0;exitX=1;exitY=1;exitDx=0;exitDy=-5;exitPerimeter=0;" parent="OxrHae_57oYZ9077EPSq-15" source="OxrHae_57oYZ9077EPSq-18" target="3zWsPPKtj1q2gXZO3qi5-4" edge="1">
          <mxGeometry relative="1" as="geometry">
            <Array as="points">
              <mxPoint x="140" y="147" />
              <mxPoint x="140" y="170" />
            </Array>
            <mxPoint x="35" y="176" as="targetPoint" />
          </mxGeometry>
        </mxCell>
        <mxCell id="OxrHae_57oYZ9077EPSq-18" value="" style="html=1;points=[[0,0,0,0,5],[0,1,0,0,-5],[1,0,0,0,5],[1,1,0,0,-5]];perimeter=orthogonalPerimeter;outlineConnect=0;targetShapes=umlLifeline;portConstraint=eastwest;newEdgeStyle={&quot;curved&quot;:0,&quot;rounded&quot;:0};" parent="OxrHae_57oYZ9077EPSq-15" vertex="1">
          <mxGeometry x="25" y="102" width="10" height="50" as="geometry" />
        </mxCell>
        <mxCell id="3zWsPPKtj1q2gXZO3qi5-4" value="" style="html=1;points=[[0,0,0,0,5],[0,1,0,0,-5],[1,0,0,0,5],[1,1,0,0,-5]];perimeter=orthogonalPerimeter;outlineConnect=0;targetShapes=umlLifeline;portConstraint=eastwest;newEdgeStyle={&quot;curved&quot;:0,&quot;rounded&quot;:0};" parent="OxrHae_57oYZ9077EPSq-15" vertex="1">
          <mxGeometry x="25" y="160" width="10" height="20" as="geometry" />
        </mxCell>
        <mxCell id="K9KjZEmJnTm0mCNg7rnt-1" style="edgeStyle=orthogonalEdgeStyle;rounded=0;orthogonalLoop=1;jettySize=auto;html=1;curved=0;" edge="1" parent="OxrHae_57oYZ9077EPSq-15" source="OxrHae_57oYZ9077EPSq-16">
          <mxGeometry relative="1" as="geometry">
            <Array as="points">
              <mxPoint x="120" y="83" />
              <mxPoint x="120" y="113" />
            </Array>
            <mxPoint x="35" y="113" as="targetPoint" />
            <mxPoint x="31" y="80" as="sourcePoint" />
          </mxGeometry>
        </mxCell>
        <mxCell id="OxrHae_57oYZ9077EPSq-19" value="&lt;div&gt;Scene Gameplay&lt;/div&gt;" style="text;html=1;align=center;verticalAlign=middle;resizable=0;points=[];autosize=1;strokeColor=none;fillColor=none;" parent="1" vertex="1">
          <mxGeometry x="375" y="49" width="120" height="30" as="geometry" />
        </mxCell>
        <mxCell id="OxrHae_57oYZ9077EPSq-20" style="rounded=0;orthogonalLoop=1;jettySize=auto;html=1;exitX=1;exitY=0;exitDx=0;exitDy=5;exitPerimeter=0;" parent="1" edge="1">
          <mxGeometry relative="1" as="geometry">
            <mxPoint x="235" y="137" as="sourcePoint" />
            <mxPoint x="431" y="137" as="targetPoint" />
          </mxGeometry>
        </mxCell>
        <mxCell id="OxrHae_57oYZ9077EPSq-21" value="1. Menekan Tombol Start()" style="edgeLabel;html=1;align=left;verticalAlign=middle;resizable=0;points=[];" parent="OxrHae_57oYZ9077EPSq-20" vertex="1" connectable="0">
          <mxGeometry x="-0.3304" y="1" relative="1" as="geometry">
            <mxPoint x="-42" y="-8" as="offset" />
          </mxGeometry>
        </mxCell>
        <mxCell id="OxrHae_57oYZ9077EPSq-22" value="&lt;span style=&quot;font-size: 10px;&quot;&gt;2. Menampilkan&amp;nbsp;&lt;/span&gt;&lt;div&gt;&lt;span style=&quot;font-size: 10px;&quot;&gt;Scene&amp;nbsp;&lt;/span&gt;&lt;span style=&quot;font-size: 10px;&quot;&gt;Gameplay()&lt;/span&gt;&lt;/div&gt;" style="edgeLabel;html=1;align=left;verticalAlign=middle;resizable=0;points=[];" parent="OxrHae_57oYZ9077EPSq-20" vertex="1" connectable="0">
          <mxGeometry x="-0.3304" y="1" relative="1" as="geometry">
            <mxPoint x="142" y="9" as="offset" />
          </mxGeometry>
        </mxCell>
        <mxCell id="OxrHae_57oYZ9077EPSq-24" style="edgeStyle=orthogonalEdgeStyle;rounded=0;orthogonalLoop=1;jettySize=auto;html=1;curved=0;" parent="1" edge="1">
          <mxGeometry relative="1" as="geometry">
            <Array as="points">
              <mxPoint x="280" y="205" />
              <mxPoint x="280" y="205" />
            </Array>
            <mxPoint x="235" y="205.0285714285714" as="sourcePoint" />
            <mxPoint x="435" y="205.0285714285714" as="targetPoint" />
          </mxGeometry>
        </mxCell>
        <mxCell id="OxrHae_57oYZ9077EPSq-25" value="3. Menekan Tombol Action Laptop()" style="edgeLabel;html=1;align=left;verticalAlign=middle;resizable=0;points=[];" parent="1" vertex="1" connectable="0">
          <mxGeometry x="240.99666666666656" y="195.99999999999977" as="geometry" />
        </mxCell>
        <mxCell id="fkkqWJSYbEHI7g0LPWqD-7" value="&lt;span style=&quot;font-size: 10px;&quot;&gt;4. Menampilkan&amp;nbsp;&lt;/span&gt;&lt;div&gt;&lt;span style=&quot;font-size: 10px;&quot;&gt;Panel Desktop Laptop&lt;/span&gt;&lt;span style=&quot;font-size: 10px;&quot;&gt;()&lt;/span&gt;&lt;/div&gt;" style="edgeLabel;html=1;align=left;verticalAlign=middle;resizable=0;points=[];" parent="1" vertex="1" connectable="0">
          <mxGeometry x="445.99999999999994" y="209" as="geometry" />
        </mxCell>
      </root>
    </mxGraphModel>
  </diagram>
</mxfile>
